<svg xmlns="http://www.w3.org/2000/svg" width="52" height="52" fill="none" viewBox="0 0 52 52"><rect width="43.25" height="43.25" x="10.219" y="-3.24" fill="url(#a)" rx="2.162" style="fill:url(#a);stroke-width:1.08124" transform="rotate(15)"/><rect width="8.65" height="8.65" x="39.412" y="2.166" fill="#fff" rx=".541" style="stroke-width:1.08124" transform="rotate(15)"/><path fill="#fff" d="m13.832 36.834-.394 1.471-5.405-1.448.394-1.471Zm-2.397-10.605L8.55 36.996l-1.856-.498L9.58 25.732Zm8.343 11.754 1.638-6.115 1.79.48-2.144 8-1.686-.452zm.697-1.596.603.145a6 6 0 0 1-.576 1.44q-.358.625-.862 1.028a2.65 2.65 0 0 1-1.155.523q-.65.12-1.456-.097a3.4 3.4 0 0 1-1.027-.457q-.442-.3-.702-.751a2.5 2.5 0 0 1-.292-1.07q-.04-.62.172-1.411l1.385-5.169 1.782.478-1.389 5.183q-.116.436-.092.76.026.316.156.541.13.224.347.362t.483.21q.76.203 1.277.024.525-.184.846-.645.33-.458.5-1.094m7.354 4.055 1.022-3.816q.115-.429.043-.781a1.13 1.13 0 0 0-.345-.607q-.264-.255-.738-.38a1.8 1.8 0 0 0-.794-.055q-.357.062-.602.267a1 1 0 0 0-.33.522l-1.775-.476q.127-.473.475-.855a2.5 2.5 0 0 1 .878-.613 3.4 3.4 0 0 1 1.189-.268q.66-.038 1.414.165.902.242 1.516.73.621.493.856 1.213.244.715-.001 1.632l-.953 3.557q-.147.548-.19 1.003-.034.45.03.809l-.033.118-1.826-.49a3.3 3.3 0 0 1-.003-.785q.054-.47.167-.89zm1.132-3.192-.28 1.106-1.28-.343a3.7 3.7 0 0 0-.898-.138q-.4-.012-.7.098t-.492.328a1.3 1.3 0 0 0-.278.536q-.085.318-.009.623.08.3.32.522.25.225.656.334.547.148 1.013.034.476-.119.8-.38.325-.27.42-.562l.364.946a2.8 2.8 0 0 1-.478.57 3.3 3.3 0 0 1-.74.515 2.896 2.896 0 0 1-2.105.197 3.16 3.16 0 0 1-1.314-.686 2.6 2.6 0 0 1-.734-1.108 2.3 2.3 0 0 1-.02-1.313q.17-.636.537-1.06.377-.43.932-.638a3.6 3.6 0 0 1 1.288-.194 6.4 6.4 0 0 1 1.6.238zm7.41 5.18 1.638-6.116 1.79.48-2.144 8-1.686-.451zm.697-1.597.603.146a6 6 0 0 1-.576 1.438q-.358.625-.862 1.03a2.65 2.65 0 0 1-1.155.522q-.65.12-1.456-.097a3.4 3.4 0 0 1-1.026-.457q-.443-.3-.703-.751-.252-.448-.292-1.069t.172-1.412l1.385-5.169 1.782.478-1.388 5.183q-.118.436-.093.76.026.316.156.541t.347.363q.216.136.483.208.762.205 1.277.025.525-.183.846-.645.33-.458.5-1.094" style="stroke-width:1.08124"/><defs><radialGradient id="a" cx="0" cy="0" r="1" gradientTransform="rotate(-45 52.865 8.975)scale(79.51353)" gradientUnits="userSpaceOnUse"><stop stop-color="#5071ea"/><stop offset="1" stop-color="#00239f"/></radialGradient></defs></svg>